<svg xmlns="http://www.w3.org/2000/svg" viewBox="0 0 1280 800">
  <defs>
    <linearGradient id="bg5" x1="0" y1="0" x2="1" y2="1">
      <stop offset="0%" stop-color="#0d241a"/>
      <stop offset="100%" stop-color="#4aa672"/>
    </linearGradient>
    <linearGradient id="card5" x1="0" y1="0" x2="1" y2="1">
      <stop offset="0%" stop-color="#ffffff" stop-opacity="0.28"/>
      <stop offset="100%" stop-color="#ffffff" stop-opacity="0.08"/>
    </linearGradient>
  </defs>
  <rect width="1280" height="800" fill="url(#bg5)"/>
  <circle cx="1150" cy="140" r="260" fill="#ffffff" fill-opacity="0.08"/>
  <circle cx="120" cy="720" r="220" fill="#ffffff" fill-opacity="0.07"/>
  <rect x="70" y="64" width="1140" height="672" rx="24" fill="url(#card5)" stroke="#ffffff" stroke-opacity="0.35"/>
  <rect x="96" y="96" width="70" height="14" rx="7" fill="#ffffff" fill-opacity="0.55"/>
  <rect x="182" y="96" width="70" height="14" rx="7" fill="#ffffff" fill-opacity="0.55"/>
  <rect x="268" y="96" width="70" height="14" rx="7" fill="#ffffff" fill-opacity="0.55"/>
  <rect x="400" y="90" width="460" height="26" rx="13" fill="#ffffff" fill-opacity="0.2"/>
  <rect x="300" y="180" width="600" height="34" rx="17" fill="#ffffff" fill-opacity="0.55"/>
  <rect x="360" y="240" width="480" height="18" rx="9" fill="#ffffff" fill-opacity="0.35"/>
  <rect x="360" y="276" width="420" height="18" rx="9" fill="#ffffff" fill-opacity="0.35"/>
  <rect x="300" y="340" width="200" height="150" rx="16" fill="url(#card5)" stroke="#ffffff" stroke-opacity="0.35"/>
  <rect x="530" y="340" width="200" height="150" rx="16" fill="url(#card5)" stroke="#ffffff" stroke-opacity="0.35"/>
  <rect x="760" y="340" width="200" height="150" rx="16" fill="url(#card5)" stroke="#ffffff" stroke-opacity="0.35"/>
  <rect x="330" y="380" width="120" height="16" rx="8" fill="#ffffff" fill-opacity="0.5"/>
  <rect x="560" y="380" width="120" height="16" rx="8" fill="#ffffff" fill-opacity="0.5"/>
  <rect x="790" y="380" width="120" height="16" rx="8" fill="#ffffff" fill-opacity="0.5"/>
  <text x="96" y="700" font-family="system-ui, sans-serif" font-size="30" font-weight="600" fill="#ffffff" fill-opacity="0.9">Projet 5 — Aperçu</text>
  <text x="96" y="738" font-family="system-ui, sans-serif" font-size="18" fill="#ffffff" fill-opacity="0.6">Sena Studio</text>
</svg>
